<?xml version="1.0" encoding="utf-8"?>
<svg fill="#000000" height="800px" width="800px" version="1.1" id="Layer_1" xmlns="http://www.w3.org/2000/svg" viewBox="0 0 512.427 512.427" xmlns:bx="https://boxy-svg.com"><defs><bx:grid x="0" y="0" width="5.33" height="5.757"/><bx:export><bx:file format="svg"/><bx:file format="svg" href="#object-0" path="Untitled 2.svg"/></bx:export></defs><g id="object-0"><path style="stroke-miterlimit: 1; stroke-dashoffset: -1px; fill: rgb(169, 135, 70); stroke: rgb(128, 83, 0); stroke-width: 13px; stroke-linejoin: round;" d="M 37.31 143.925 L 282.49 143.925 C 282.49 143.925 325.13 144.168 325.13 187.224 C 325.13 230.28 282.49 230.28 282.49 230.28 L 37.31 230.28 C 37.31 230.28 53.3 207.463 53.3 187.092 C 53.3 166.721 37.31 143.925 37.31 143.925 Z"/><path style="fill: rgb(216, 216, 216); stroke-width: 11px; stroke-linecap: round; stroke: rgb(128, 83, 0); stroke-linejoin: round;" d="M 79.95 172.71 L 287.82 172.71"/><path style="fill: rgb(216, 216, 216); stroke-width: 11px; stroke-linecap: round; stroke: rgb(128, 83, 0); stroke-linejoin: round;" d="M 79.95 201.495 L 287.82 201.495"/></g><g transform="matrix(1, 0, 0, 1, -26.65, 86.355003)"><path style="stroke-miterlimit: 1; stroke-linejoin: round; stroke-dashoffset: -1px; fill: rgb(169, 135, 70); stroke: rgb(128, 83, 0); stroke-width: 13px;" d="M 37.31 143.925 L 282.49 143.925 C 282.49 143.925 325.13 144.168 325.13 187.224 C 325.13 230.28 282.49 230.28 282.49 230.28 L 37.31 230.28 C 37.31 230.28 53.3 207.463 53.3 187.092 C 53.3 166.721 37.31 143.925 37.31 143.925 Z"/><path style="fill: rgb(216, 216, 216); stroke-width: 11px; stroke-linecap: round; stroke: rgb(128, 83, 0);" d="M 79.95 172.71 L 287.82 172.71"/><path style="fill: rgb(216, 216, 216); stroke-width: 11px; stroke-linecap: round; stroke: rgb(128, 83, 0);" d="M 79.95 201.495 L 287.82 201.495"/></g><g transform="matrix(1, 0, 0, 1, -0.000011, 172.710007)"><path style="stroke-miterlimit: 1; stroke-linejoin: round; stroke-dashoffset: -1px; fill: rgb(169, 135, 70); stroke: rgb(128, 83, 0); stroke-width: 13px;" d="M 37.31 143.925 L 282.49 143.925 C 282.49 143.925 325.13 144.168 325.13 187.224 C 325.13 230.28 282.49 230.28 282.49 230.28 L 37.31 230.28 C 37.31 230.28 53.3 207.463 53.3 187.092 C 53.3 166.721 37.31 143.925 37.31 143.925 Z"/><path style="fill: rgb(216, 216, 216); stroke-width: 11px; stroke-linecap: round; stroke: rgb(128, 83, 0);" d="M 79.95 172.71 L 287.82 172.71"/><path style="fill: rgb(216, 216, 216); stroke-width: 11px; stroke-linecap: round; stroke: rgb(128, 83, 0);" d="M 79.95 201.495 L 287.82 201.495"/></g><path style="fill: rgb(169, 135, 70); stroke: rgb(128, 83, 0); stroke-width: 13px; stroke-linejoin: round;" d="M 10.66 402.99 L 501.02 402.99 L 501.02 454.803 L 10.66 454.803 L 10.66 402.99 Z"/><g transform="matrix(1.03491, -0.277305, 0.27799, 1.03747, -78.077103, 41.399399)" style="transform-origin: 458.38px 189.981px 0px;"><path style="fill: rgb(169, 135, 70); stroke: rgb(128, 83, 0); stroke-linecap: round; stroke-linejoin: round; stroke-width: 12.1184px;" d="M 495.69 34.542 L 495.69 345.42 L 421.07 345.42 L 421.07 34.542 L 495.69 34.542 Z"/><path style="fill: rgb(169, 135, 70); stroke: rgb(128, 83, 0); stroke-linecap: round; stroke-linejoin: round; stroke-width: 12.1184px;" d="M 421.07 74.841 L 495.69 74.841"/><path style="fill: rgb(169, 135, 70); stroke: rgb(128, 83, 0); stroke-linecap: round; stroke-linejoin: round; stroke-width: 12.1184px;" d="M 421.07 103.626 L 495.69 103.626"/><path style="fill: rgb(169, 135, 70); stroke: rgb(128, 83, 0); stroke-linecap: round; stroke-linejoin: round; stroke-width: 12.1184px;" d="M 421.07 305.121 L 495.69 305.121"/><path style="fill: rgb(169, 135, 70); stroke: rgb(128, 83, 0); stroke-linecap: round; stroke-linejoin: round; stroke-width: 12.1184px;" d="M 421.07 276.336 L 495.69 276.336"/><path style="fill: rgb(169, 135, 70); stroke: rgb(128, 83, 0); stroke-linecap: round; stroke-linejoin: round; stroke-width: 12.1184px;" d="M 458.38 241.794 L 458.38 138.168"/></g></svg>